<?xml version="1.0" encoding="UTF-8" standalone="no"?><!DOCTYPE svg PUBLIC "-//W3C//DTD SVG 1.1//EN" "http://www.w3.org/Graphics/SVG/1.1/DTD/svg11.dtd"><!-- Generated by graphviz version 2.40.1 (20161225.0304)
 --><!-- Title: DiagramaFlujo Pages: 1 --><svg xmlns="http://www.w3.org/2000/svg" xmlns:xlink="http://www.w3.org/1999/xlink" width="533pt" height="757pt" viewBox="0.00 0.00 533.42 757.40">
<g id="graph0" class="graph" transform="scale(1 1) rotate(0) translate(4 753.4)">
<title>DiagramaFlujo</title>
<polygon fill="#ffffff" stroke="transparent" points="-4,4 -4,-753.4 529.4174,-753.4 529.4174,4 -4,4"/>
<!-- Inicio -->
<g id="node1" class="node">
<title>Inicio</title>
<polygon fill="none" stroke="#000000" points="369.8774,-749.4 315.8774,-749.4 315.8774,-713.4 369.8774,-713.4 369.8774,-749.4"/>
<text text-anchor="middle" x="342.8774" y="-727.2" font-family="Times,serif" font-size="14.00" fill="#000000">Inicio</text>
</g>
<!-- Configuracion -->
<g id="node2" class="node">
<title>Configuracion</title>
<polygon fill="none" stroke="#000000" points="440.4907,-676.4 245.264,-676.4 245.264,-640.4 440.4907,-640.4 440.4907,-676.4"/>
<text text-anchor="middle" x="342.8774" y="-654.2" font-family="Times,serif" font-size="14.00" fill="#000000">Configuración de componentes</text>
</g>
<!-- Inicio&#45;&gt;Configuracion -->
<g id="edge1" class="edge">
<title>Inicio-&gt;Configuracion</title>
<path fill="none" stroke="#000000" d="M342.8774,-713.3551C342.8774,-705.2828 342.8774,-695.5764 342.8774,-686.5817"/>
<polygon fill="#000000" stroke="#000000" points="346.3775,-686.4903 342.8774,-676.4904 339.3775,-686.4904 346.3775,-686.4903"/>
</g>
<!-- Bucle -->
<g id="node3" class="node">
<title>Bucle</title>
<polygon fill="none" stroke="#000000" points="394.849,-603.4 290.9057,-603.4 290.9057,-567.4 394.849,-567.4 394.849,-603.4"/>
<text text-anchor="middle" x="342.8774" y="-581.2" font-family="Times,serif" font-size="14.00" fill="#000000">Bucle while(1):</text>
</g>
<!-- Configuracion&#45;&gt;Bucle -->
<g id="edge2" class="edge">
<title>Configuracion-&gt;Bucle</title>
<path fill="none" stroke="#000000" d="M342.8774,-640.3551C342.8774,-632.2828 342.8774,-622.5764 342.8774,-613.5817"/>
<polygon fill="#000000" stroke="#000000" points="346.3775,-613.4903 342.8774,-603.4904 339.3775,-613.4904 346.3775,-613.4903"/>
</g>
<!-- InicioEstado -->
<g id="node4" class="node">
<title>InicioEstado</title>
<polygon fill="none" stroke="#000000" points="418.5475,-530.2019 267.2072,-530.2019 267.2072,-488.9981 418.5475,-488.9981 418.5475,-530.2019"/>
<text text-anchor="middle" x="342.8774" y="-513.8" font-family="Times,serif" font-size="14.00" fill="#000000">HOME</text>
<text text-anchor="middle" x="342.8774" y="-497" font-family="Times,serif" font-size="14.00" fill="#000000">Esperando interrupción</text>
</g>
<!-- Bucle&#45;&gt;InicioEstado -->
<g id="edge3" class="edge">
<title>Bucle-&gt;InicioEstado</title>
<path fill="none" stroke="#000000" d="M342.8774,-567.0509C342.8774,-559.115 342.8774,-549.6041 342.8774,-540.6258"/>
<polygon fill="#000000" stroke="#000000" points="346.3775,-540.4568 342.8774,-530.4568 339.3775,-540.4569 346.3775,-540.4568"/>
</g>
<!-- InicioEstado&#45;&gt;InicioEstado -->
<g id="edge5" class="edge">
<title>InicioEstado-&gt;InicioEstado</title>
<path fill="none" stroke="#000000" d="M418.7206,-515.994C429.4874,-514.9598 436.7123,-512.8285 436.7123,-509.6 436.7123,-507.5317 433.7472,-505.9138 428.7853,-504.7461"/>
<polygon fill="#000000" stroke="#000000" points="429.1349,-501.2589 418.7206,-503.206 428.0761,-508.1784 429.1349,-501.2589"/>
</g>
<!-- SinBolaEstado -->
<g id="node5" class="node">
<title>SinBolaEstado</title>
<polygon fill="none" stroke="#000000" points="393.6523,-435.8019 98.1024,-435.8019 98.1024,-394.5981 393.6523,-394.5981 393.6523,-435.8019"/>
<text text-anchor="middle" x="245.8774" y="-419.4" font-family="Times,serif" font-size="14.00" fill="#000000">SIN BOLA</text>
<text text-anchor="middle" x="245.8774" y="-402.6" font-family="Times,serif" font-size="14.00" fill="#000000">Esperando que la bola esté cargada en el lanzador</text>
</g>
<!-- InicioEstado&#45;&gt;SinBolaEstado -->
<g id="edge4" class="edge">
<title>InicioEstado-&gt;SinBolaEstado</title>
<path fill="none" stroke="#000000" d="M321.3499,-488.6496C307.6614,-475.328 289.7698,-457.916 274.8425,-443.3888"/>
<polygon fill="#000000" stroke="#000000" points="276.9521,-440.558 267.3446,-436.0919 272.0701,-445.5745 276.9521,-440.558"/>
<text text-anchor="middle" x="353.7214" y="-458.2" font-family="Times,serif" font-size="14.00" fill="#000000">Interruptor pulsado</text>
</g>
<!-- SinBolaEstado&#45;&gt;SinBolaEstado -->
<g id="edge7" class="edge">
<title>SinBolaEstado-&gt;SinBolaEstado</title>
<path fill="none" stroke="#000000" d="M393.6602,-421.6349C404.7206,-420.1975 411.5148,-418.0525 411.5148,-415.2 411.5148,-413.3726 408.7264,-411.8356 403.8144,-410.5889"/>
<polygon fill="#000000" stroke="#000000" points="404.1215,-407.0882 393.6602,-408.7651 402.8839,-413.9779 404.1215,-407.0882"/>
</g>
<!-- BolaLanzadorEstado -->
<g id="node6" class="node">
<title>BolaLanzadorEstado</title>
<polygon fill="none" stroke="#000000" points="215.0307,-341.4019 42.724,-341.4019 42.724,-300.1981 215.0307,-300.1981 215.0307,-341.4019"/>
<text text-anchor="middle" x="128.8774" y="-325" font-family="Times,serif" font-size="14.00" fill="#000000">BOLA LANZADOR</text>
<text text-anchor="middle" x="128.8774" y="-308.2" font-family="Times,serif" font-size="14.00" fill="#000000">Enganchar carrito y vastago</text>
</g>
<!-- SinBolaEstado&#45;&gt;BolaLanzadorEstado -->
<g id="edge6" class="edge">
<title>SinBolaEstado-&gt;BolaLanzadorEstado</title>
<path fill="none" stroke="#000000" d="M162.8079,-394.531C147.7301,-389.1501 135.2189,-382.993 130.345,-376.4 125.1052,-369.3122 123.4156,-360.21 123.4104,-351.431"/>
<polygon fill="#000000" stroke="#000000" points="126.9054,-351.6212 124.0665,-341.4138 119.9204,-351.1637 126.9054,-351.6212"/>
<text text-anchor="middle" x="204.1436" y="-363.8" font-family="Times,serif" font-size="14.00" fill="#000000">Bola cargada en Lanzador</text>
</g>
<!-- LanzamientoEstado -->
<g id="node7" class="node">
<title>LanzamientoEstado</title>
<polygon fill="none" stroke="#000000" points="240.305,-247.0019 17.4497,-247.0019 17.4497,-205.7981 240.305,-205.7981 240.305,-247.0019"/>
<text text-anchor="middle" x="128.8774" y="-230.6" font-family="Times,serif" font-size="14.00" fill="#000000">LANZAMIENTO</text>
<text text-anchor="middle" x="128.8774" y="-213.8" font-family="Times,serif" font-size="14.00" fill="#000000">Realizando el lanzamiento de la bola</text>
</g>
<!-- BolaLanzadorEstado&#45;&gt;LanzamientoEstado -->
<g id="edge8" class="edge">
<title>BolaLanzadorEstado-&gt;LanzamientoEstado</title>
<path fill="none" stroke="#000000" d="M128.8774,-299.8496C128.8774,-287.3835 128.8774,-271.3355 128.8774,-257.4214"/>
<polygon fill="#000000" stroke="#000000" points="132.3775,-257.2918 128.8774,-247.2919 125.3775,-257.2919 132.3775,-257.2918"/>
<text text-anchor="middle" x="193.2088" y="-269.4" font-family="Times,serif" font-size="14.00" fill="#000000">Bola lista para lanzarla</text>
</g>
<!-- TirarBolaEstado -->
<g id="node8" class="node">
<title>TirarBolaEstado</title>
<polygon fill="none" stroke="#000000" points="224.9907,-153.0014 36.764,-153.0014 36.764,-94.1986 224.9907,-94.1986 224.9907,-153.0014"/>
<text text-anchor="middle" x="130.8774" y="-136.2" font-family="Times,serif" font-size="14.00" fill="#000000">TIRAR BOLA</text>
<text text-anchor="middle" x="130.8774" y="-119.4" font-family="Times,serif" font-size="14.00" fill="#000000">El interruptor ha sido pulsado</text>
<text text-anchor="middle" x="130.8774" y="-102.6" font-family="Times,serif" font-size="14.00" fill="#000000">Empezar timer de 30 segundos</text>
</g>
<!-- LanzamientoEstado&#45;&gt;TirarBolaEstado -->
<g id="edge9" class="edge">
<title>LanzamientoEstado-&gt;TirarBolaEstado</title>
<path fill="none" stroke="#000000" d="M18.6697,-205.6503C2.522,-197.5192 -5.5352,-186.2833 5.1894,-170.8 8.8962,-165.4483 16.9696,-160.1849 27.3274,-155.226"/>
<polygon fill="#000000" stroke="#000000" points="28.8055,-158.3992 36.5196,-151.1368 25.9603,-152.0035 28.8055,-158.3992"/>
<text text-anchor="middle" x="59.7214" y="-175" font-family="Times,serif" font-size="14.00" fill="#000000">Interruptor pulsado</text>
</g>
<!-- TirarBolaEstado&#45;&gt;LanzamientoEstado -->
<g id="edge10" class="edge">
<title>TirarBolaEstado-&gt;LanzamientoEstado</title>
<path fill="none" stroke="#000000" d="M130.3065,-152.9423C130.0483,-166.2108 129.7431,-181.8994 129.4812,-195.364"/>
<polygon fill="#000000" stroke="#000000" points="125.9774,-195.5307 129.2821,-205.5969 132.976,-195.6669 125.9774,-195.5307"/>
<text text-anchor="middle" x="199.6979" y="-175" font-family="Times,serif" font-size="14.00" fill="#000000">Posición es DERECHA</text>
</g>
<!-- RetornoEstado -->
<g id="node9" class="node">
<title>RetornoEstado</title>
<polygon fill="none" stroke="#000000" points="388.3106,-41.4019 193.4441,-41.4019 193.4441,-.1981 388.3106,-.1981 388.3106,-41.4019"/>
<text text-anchor="middle" x="290.8774" y="-25" font-family="Times,serif" font-size="14.00" fill="#000000">RETORNO</text>
<text text-anchor="middle" x="290.8774" y="-8.2" font-family="Times,serif" font-size="14.00" fill="#000000">Realizando el retorno de la bola</text>
</g>
<!-- TirarBolaEstado&#45;&gt;RetornoEstado -->
<g id="edge11" class="edge">
<title>TirarBolaEstado-&gt;RetornoEstado</title>
<path fill="none" stroke="#000000" d="M124.2605,-94.1969C123.2951,-82.2905 124.631,-69.1334 132.284,-59.6 139.8479,-50.1775 159.9626,-42.7278 183.4298,-36.9818"/>
<polygon fill="#000000" stroke="#000000" points="184.3405,-40.3637 193.2964,-34.7031 182.7653,-33.5432 184.3405,-40.3637"/>
<text text-anchor="middle" x="205.1741" y="-63.8" font-family="Times,serif" font-size="14.00" fill="#000000">Bola tirada correctamente</text>
</g>
<!-- RetornoEstado&#45;&gt;InicioEstado -->
<g id="edge12" class="edge">
<title>RetornoEstado-&gt;InicioEstado</title>
<path fill="none" stroke="#000000" d="M364.0678,-41.4839C401.7492,-57.0726 439.8774,-82.9016 439.8774,-123.6 439.8774,-415.2 439.8774,-415.2 439.8774,-415.2 439.8774,-442.8677 430.989,-450.7938 411.8774,-470.8 407.5164,-475.3651 402.4988,-479.5411 397.2005,-483.3208"/>
<polygon fill="#000000" stroke="#000000" points="395.1157,-480.5032 388.6978,-488.933 398.9718,-486.3454 395.1157,-480.5032"/>
<text text-anchor="middle" x="482.6474" y="-269.4" font-family="Times,serif" font-size="14.00" fill="#000000">Último Disparo</text>
</g>
<!-- RetornoEstado&#45;&gt;SinBolaEstado -->
<g id="edge13" class="edge">
<title>RetornoEstado-&gt;SinBolaEstado</title>
<path fill="none" stroke="#000000" d="M290.8774,-41.6701C290.8774,-62.4396 290.8774,-95.2229 290.8774,-123.6 290.8774,-320.8 290.8774,-320.8 290.8774,-320.8 290.8774,-346.2824 288.1992,-353.5708 276.8774,-376.4 275.2086,-379.7649 273.2101,-383.1082 271.0424,-386.3397"/>
<polygon fill="#000000" stroke="#000000" points="268.1001,-384.4337 265.0196,-394.5708 273.7494,-388.5673 268.1001,-384.4337"/>
<text text-anchor="middle" x="351.5303" y="-222.2" font-family="Times,serif" font-size="14.00" fill="#000000">No es Último Disparo</text>
</g>
</g>
</svg>