<?xml version="1.0" encoding="UTF-8" ?>
<svg xmlns="http://www.w3.org/2000/svg" xmlns:xlink="http://www.w3.org/1999/xlink" width="525pt" height="757pt" viewBox="0.00 0.00 525.46 757.40">
<g id="graph0" class="graph" transform="scale(1 1) rotate(0) translate(4 753.4)">
<title>DiagramaFlujo</title>
<polygon fill="#ffffff" stroke="transparent" points="-4,4 -4,-753.4 521.4619,-753.4 521.4619,4 -4,4"/>
<!-- Inicio -->
<g id="node1" class="node">
<title>Inicio</title>
<polygon fill="none" stroke="#000000" points="361.9219,-749.4 307.9219,-749.4 307.9219,-713.4 361.9219,-713.4 361.9219,-749.4"/>
<text text-anchor="middle" x="334.9219" y="-727.2" font-family="Times,serif" font-size="14.00" fill="#000000">Inicio</text>
</g>
<!-- Configuracion -->
<g id="node2" class="node">
<title>Configuracion</title>
<polygon fill="none" stroke="#000000" points="432.5353,-676.4 237.3085,-676.4 237.3085,-640.4 432.5353,-640.4 432.5353,-676.4"/>
<text text-anchor="middle" x="334.9219" y="-654.2" font-family="Times,serif" font-size="14.00" fill="#000000">Configuración de componentes</text>
</g>
<!-- Inicio&#45;&gt;Configuracion -->
<g id="edge1" class="edge">
<title>Inicio-&gt;Configuracion</title>
<path fill="none" stroke="#000000" d="M334.9219,-713.3551C334.9219,-705.2828 334.9219,-695.5764 334.9219,-686.5817"/>
<polygon fill="#000000" stroke="#000000" points="338.422,-686.4903 334.9219,-676.4904 331.422,-686.4904 338.422,-686.4903"/>
</g>
<!-- Bucle -->
<g id="node3" class="node">
<title>Bucle</title>
<polygon fill="none" stroke="#000000" points="386.8936,-603.4 282.9502,-603.4 282.9502,-567.4 386.8936,-567.4 386.8936,-603.4"/>
<text text-anchor="middle" x="334.9219" y="-581.2" font-family="Times,serif" font-size="14.00" fill="#000000">Bucle while(1):</text>
</g>
<!-- Configuracion&#45;&gt;Bucle -->
<g id="edge2" class="edge">
<title>Configuracion-&gt;Bucle</title>
<path fill="none" stroke="#000000" d="M334.9219,-640.3551C334.9219,-632.2828 334.9219,-622.5764 334.9219,-613.5817"/>
<polygon fill="#000000" stroke="#000000" points="338.422,-613.4903 334.9219,-603.4904 331.422,-613.4904 338.422,-613.4903"/>
</g>
<!-- InicioEstado -->
<g id="node4" class="node">
<title>InicioEstado</title>
<polygon fill="none" stroke="#000000" points="410.5921,-530.2019 259.2517,-530.2019 259.2517,-488.9981 410.5921,-488.9981 410.5921,-530.2019"/>
<text text-anchor="middle" x="334.9219" y="-513.8" font-family="Times,serif" font-size="14.00" fill="#000000">HOME</text>
<text text-anchor="middle" x="334.9219" y="-497" font-family="Times,serif" font-size="14.00" fill="#000000">Esperando interrupción</text>
</g>
<!-- Bucle&#45;&gt;InicioEstado -->
<g id="edge3" class="edge">
<title>Bucle-&gt;InicioEstado</title>
<path fill="none" stroke="#000000" d="M334.9219,-567.0509C334.9219,-559.115 334.9219,-549.6041 334.9219,-540.6258"/>
<polygon fill="#000000" stroke="#000000" points="338.422,-540.4568 334.9219,-530.4568 331.422,-540.4569 338.422,-540.4568"/>
</g>
<!-- InicioEstado&#45;&gt;InicioEstado -->
<g id="edge5" class="edge">
<title>InicioEstado-&gt;InicioEstado</title>
<path fill="none" stroke="#000000" d="M410.7651,-515.994C421.5319,-514.9598 428.7568,-512.8285 428.7568,-509.6 428.7568,-507.5317 425.7917,-505.9138 420.8298,-504.7461"/>
<polygon fill="#000000" stroke="#000000" points="421.1795,-501.2589 410.7651,-503.206 420.1206,-508.1784 421.1795,-501.2589"/>
</g>
<!-- SinBolaEstado -->
<g id="node5" class="node">
<title>SinBolaEstado</title>
<polygon fill="none" stroke="#000000" points="385.6968,-435.8019 90.147,-435.8019 90.147,-394.5981 385.6968,-394.5981 385.6968,-435.8019"/>
<text text-anchor="middle" x="237.9219" y="-419.4" font-family="Times,serif" font-size="14.00" fill="#000000">SIN BOLA</text>
<text text-anchor="middle" x="237.9219" y="-402.6" font-family="Times,serif" font-size="14.00" fill="#000000">Esperando que la bola esté cargada en el lanzador</text>
</g>
<!-- InicioEstado&#45;&gt;SinBolaEstado -->
<g id="edge4" class="edge">
<title>InicioEstado-&gt;SinBolaEstado</title>
<path fill="none" stroke="#000000" d="M313.3945,-488.6496C299.706,-475.328 281.8144,-457.916 266.887,-443.3888"/>
<polygon fill="#000000" stroke="#000000" points="268.9967,-440.558 259.3892,-436.0919 264.1146,-445.5745 268.9967,-440.558"/>
<text text-anchor="middle" x="345.7659" y="-458.2" font-family="Times,serif" font-size="14.00" fill="#000000">Interruptor pulsado</text>
</g>
<!-- SinBolaEstado&#45;&gt;SinBolaEstado -->
<g id="edge7" class="edge">
<title>SinBolaEstado-&gt;SinBolaEstado</title>
<path fill="none" stroke="#000000" d="M385.7048,-421.6349C396.7652,-420.1975 403.5593,-418.0525 403.5593,-415.2 403.5593,-413.3726 400.771,-411.8356 395.859,-410.5889"/>
<polygon fill="#000000" stroke="#000000" points="396.166,-407.0882 385.7048,-408.7651 394.9285,-413.9779 396.166,-407.0882"/>
</g>
<!-- BolaLanzadorEstado -->
<g id="node6" class="node">
<title>BolaLanzadorEstado</title>
<polygon fill="none" stroke="#000000" points="241.7658,-341.4019 .078,-341.4019 .078,-300.1981 241.7658,-300.1981 241.7658,-341.4019"/>
<text text-anchor="middle" x="120.9219" y="-325" font-family="Times,serif" font-size="14.00" fill="#000000">BOLA LANZADOR</text>
<text text-anchor="middle" x="120.9219" y="-308.2" font-family="Times,serif" font-size="14.00" fill="#000000">Enganchar carrito y mover vastago atras</text>
</g>
<!-- SinBolaEstado&#45;&gt;BolaLanzadorEstado -->
<g id="edge6" class="edge">
<title>SinBolaEstado-&gt;BolaLanzadorEstado</title>
<path fill="none" stroke="#000000" d="M154.8524,-394.531C139.7747,-389.1501 127.2634,-382.993 122.3895,-376.4 117.1498,-369.3122 115.4601,-360.21 115.455,-351.431"/>
<polygon fill="#000000" stroke="#000000" points="118.9499,-351.6212 116.111,-341.4138 111.9649,-351.1637 118.9499,-351.6212"/>
<text text-anchor="middle" x="196.1881" y="-363.8" font-family="Times,serif" font-size="14.00" fill="#000000">Bola cargada en Lanzador</text>
</g>
<!-- LanzamientoEstado -->
<g id="node7" class="node">
<title>LanzamientoEstado</title>
<polygon fill="none" stroke="#000000" points="232.3495,-247.0019 9.4943,-247.0019 9.4943,-205.7981 232.3495,-205.7981 232.3495,-247.0019"/>
<text text-anchor="middle" x="120.9219" y="-230.6" font-family="Times,serif" font-size="14.00" fill="#000000">LANZAMIENTO</text>
<text text-anchor="middle" x="120.9219" y="-213.8" font-family="Times,serif" font-size="14.00" fill="#000000">Realizando el lanzamiento de la bola</text>
</g>
<!-- BolaLanzadorEstado&#45;&gt;LanzamientoEstado -->
<g id="edge8" class="edge">
<title>BolaLanzadorEstado-&gt;LanzamientoEstado</title>
<path fill="none" stroke="#000000" d="M120.9219,-299.8496C120.9219,-287.3835 120.9219,-271.3355 120.9219,-257.4214"/>
<polygon fill="#000000" stroke="#000000" points="124.422,-257.2918 120.9219,-247.2919 117.422,-257.2919 124.422,-257.2918"/>
<text text-anchor="middle" x="185.2533" y="-269.4" font-family="Times,serif" font-size="14.00" fill="#000000">Bola lista para lanzarla</text>
</g>
<!-- TirarBolaEstado -->
<g id="node8" class="node">
<title>TirarBolaEstado</title>
<polygon fill="none" stroke="#000000" points="216.0353,-153.0014 27.8085,-153.0014 27.8085,-94.1986 216.0353,-94.1986 216.0353,-153.0014"/>
<text text-anchor="middle" x="121.9219" y="-136.2" font-family="Times,serif" font-size="14.00" fill="#000000">TIRAR BOLA</text>
<text text-anchor="middle" x="121.9219" y="-119.4" font-family="Times,serif" font-size="14.00" fill="#000000">Liberar carrito</text>
<text text-anchor="middle" x="121.9219" y="-102.6" font-family="Times,serif" font-size="14.00" fill="#000000">Empezar timer de 30 segundos</text>
</g>
<!-- LanzamientoEstado&#45;&gt;TirarBolaEstado -->
<g id="edge9" class="edge">
<title>LanzamientoEstado-&gt;TirarBolaEstado</title>
<path fill="none" stroke="#000000" d="M121.1243,-205.5969C121.2427,-193.4167 121.3963,-177.6324 121.537,-163.1695"/>
<polygon fill="#000000" stroke="#000000" points="125.0389,-162.9759 121.6365,-152.9423 118.0393,-162.9077 125.0389,-162.9759"/>
<text text-anchor="middle" x="175.7659" y="-175" font-family="Times,serif" font-size="14.00" fill="#000000">Interruptor pulsado</text>
</g>
<!-- RetornoEstado -->
<g id="node9" class="node">
<title>RetornoEstado</title>
<polygon fill="none" stroke="#000000" points="380.3552,-41.4019 185.4886,-41.4019 185.4886,-.1981 380.3552,-.1981 380.3552,-41.4019"/>
<text text-anchor="middle" x="282.9219" y="-25" font-family="Times,serif" font-size="14.00" fill="#000000">RETORNO</text>
<text text-anchor="middle" x="282.9219" y="-8.2" font-family="Times,serif" font-size="14.00" fill="#000000">Realizando el retorno de la bola</text>
</g>
<!-- TirarBolaEstado&#45;&gt;RetornoEstado -->
<g id="edge10" class="edge">
<title>TirarBolaEstado-&gt;RetornoEstado</title>
<path fill="none" stroke="#000000" d="M115.8339,-94.1427C115.0663,-82.2271 116.5977,-69.0778 124.3285,-59.6 131.9657,-50.2369 152.1049,-42.8069 175.5722,-37.061"/>
<polygon fill="#000000" stroke="#000000" points="176.4823,-40.443 185.4375,-34.7812 174.9062,-33.6227 176.4823,-40.443"/>
<text text-anchor="middle" x="197.2186" y="-63.8" font-family="Times,serif" font-size="14.00" fill="#000000">Bola tirada correctamente</text>
</g>
<!-- RetornoEstado&#45;&gt;InicioEstado -->
<g id="edge11" class="edge">
<title>RetornoEstado-&gt;InicioEstado</title>
<path fill="none" stroke="#000000" d="M356.1124,-41.4839C393.7937,-57.0726 431.9219,-82.9016 431.9219,-123.6 431.9219,-415.2 431.9219,-415.2 431.9219,-415.2 431.9219,-442.8677 423.0335,-450.7938 403.9219,-470.8 399.561,-475.3651 394.5433,-479.5411 389.2451,-483.3208"/>
<polygon fill="#000000" stroke="#000000" points="387.1602,-480.5032 380.7423,-488.933 391.0163,-486.3454 387.1602,-480.5032"/>
<text text-anchor="middle" x="474.6919" y="-269.4" font-family="Times,serif" font-size="14.00" fill="#000000">Último Disparo</text>
</g>
<!-- RetornoEstado&#45;&gt;SinBolaEstado -->
<g id="edge12" class="edge">
<title>RetornoEstado-&gt;SinBolaEstado</title>
<path fill="none" stroke="#000000" d="M282.9219,-41.6701C282.9219,-62.4396 282.9219,-95.2229 282.9219,-123.6 282.9219,-320.8 282.9219,-320.8 282.9219,-320.8 282.9219,-346.2824 280.2437,-353.5708 268.9219,-376.4 267.2531,-379.7649 265.2546,-383.1082 263.0869,-386.3397"/>
<polygon fill="#000000" stroke="#000000" points="260.1447,-384.4337 257.0641,-394.5708 265.7939,-388.5673 260.1447,-384.4337"/>
<text text-anchor="middle" x="343.5748" y="-222.2" font-family="Times,serif" font-size="14.00" fill="#000000">No es Último Disparo</text>
</g>
</g>
</svg>