<?xml version="1.0" encoding="UTF-8" standalone="no"?><!DOCTYPE svg PUBLIC "-//W3C//DTD SVG 1.1//EN" "http://www.w3.org/Graphics/SVG/1.1/DTD/svg11.dtd"><!-- Generated by graphviz version 2.40.1 (20161225.0304)
 --><!-- Title: interrupt_routines Pages: 1 --><svg xmlns="http://www.w3.org/2000/svg" xmlns:xlink="http://www.w3.org/1999/xlink" width="2721pt" height="188pt" viewBox="0.00 0.00 2721.48 188.00">
<g id="graph0" class="graph" transform="scale(1 1) rotate(0) translate(4 184)">
<title>interrupt_routines</title>
<polygon fill="#ffffff" stroke="transparent" points="-4,4 -4,-184 2717.4776,-184 2717.4776,4 -4,4"/>
<!-- TIMER0_COMPA_vect -->
<g id="node1" class="node">
<title>TIMER0_COMPA_vect</title>
<path fill="none" stroke="#000000" d="M345.3397,-180C345.3397,-180 184.8497,-180 184.8497,-180 178.8497,-180 172.8497,-174 172.8497,-168 172.8497,-168 172.8497,-156 172.8497,-156 172.8497,-150 178.8497,-144 184.8497,-144 184.8497,-144 345.3397,-144 345.3397,-144 351.3397,-144 357.3397,-150 357.3397,-156 357.3397,-156 357.3397,-168 357.3397,-168 357.3397,-174 351.3397,-180 345.3397,-180"/>
<text text-anchor="middle" x="265.0947" y="-157.8" font-family="Times,serif" font-size="14.00" fill="#000000">ISR(TIMER0_COMPA_vect)</text>
</g>
<!-- DisplayUpdater -->
<g id="node7" class="node">
<title>DisplayUpdater</title>
<path fill="none" stroke="#000000" d="M556.0499,-108C556.0499,-108 466.1395,-108 466.1395,-108 460.1395,-108 454.1395,-102 454.1395,-96 454.1395,-96 454.1395,-84 454.1395,-84 454.1395,-78 460.1395,-72 466.1395,-72 466.1395,-72 556.0499,-72 556.0499,-72 562.0499,-72 568.0499,-78 568.0499,-84 568.0499,-84 568.0499,-96 568.0499,-96 568.0499,-102 562.0499,-108 556.0499,-108"/>
<text text-anchor="middle" x="511.0947" y="-85.8" font-family="Times,serif" font-size="14.00" fill="#000000">DisplayUpdater()</text>
</g>
<!-- TIMER0_COMPA_vect&#45;&gt;DisplayUpdater -->
<g id="edge1" class="edge">
<title>TIMER0_COMPA_vect-&gt;DisplayUpdater</title>
<path fill="none" stroke="#000000" d="M326.8534,-143.9243C363.2605,-133.2685 409.2784,-119.7999 446.2157,-108.989"/>
<polygon fill="#000000" stroke="#000000" points="453.9531,-106.7244 447.2865,-112.4267 450.1142,-107.848 446.2752,-108.9716 446.2752,-108.9716 446.2752,-108.9716 450.1142,-107.848 445.264,-105.5166 453.9531,-106.7244 453.9531,-106.7244"/>
</g>
<!-- updateTime -->
<g id="node8" class="node">
<title>updateTime</title>
<path fill="none" stroke="#000000" d="M80.2843,-108C80.2843,-108 11.9051,-108 11.9051,-108 5.9051,-108 -.0949,-102 -.0949,-96 -.0949,-96 -.0949,-84 -.0949,-84 -.0949,-78 5.9051,-72 11.9051,-72 11.9051,-72 80.2843,-72 80.2843,-72 86.2843,-72 92.2843,-78 92.2843,-84 92.2843,-84 92.2843,-96 92.2843,-96 92.2843,-102 86.2843,-108 80.2843,-108"/>
<text text-anchor="middle" x="46.0947" y="-85.8" font-family="Times,serif" font-size="14.00" fill="#000000">updateTime()</text>
</g>
<!-- TIMER0_COMPA_vect&#45;&gt;updateTime -->
<g id="edge2" class="edge">
<title>TIMER0_COMPA_vect-&gt;updateTime</title>
<path fill="none" stroke="#000000" d="M210.1144,-143.9243C176.4495,-132.8564 133.554,-118.7538 100.0743,-107.7467"/>
<polygon fill="#000000" stroke="#000000" points="92.2134,-105.1623 100.9376,-104.241 96.0133,-106.4116 99.8132,-107.661 99.8132,-107.661 99.8132,-107.661 96.0133,-106.4116 98.6889,-111.0809 92.2134,-105.1623 92.2134,-105.1623"/>
</g>
<!-- UpdateTimeElevadores -->
<g id="node9" class="node">
<title>UpdateTimeElevadores</title>
<path fill="none" stroke="#000000" d="M256.0837,-108C256.0837,-108 122.1057,-108 122.1057,-108 116.1057,-108 110.1057,-102 110.1057,-96 110.1057,-96 110.1057,-84 110.1057,-84 110.1057,-78 116.1057,-72 122.1057,-72 122.1057,-72 256.0837,-72 256.0837,-72 262.0837,-72 268.0837,-78 268.0837,-84 268.0837,-84 268.0837,-96 268.0837,-96 268.0837,-102 262.0837,-108 256.0837,-108"/>
<text text-anchor="middle" x="189.0947" y="-85.8" font-family="Times,serif" font-size="14.00" fill="#000000">UpdateTimeElevadores()</text>
</g>
<!-- TIMER0_COMPA_vect&#45;&gt;UpdateTimeElevadores -->
<g id="edge3" class="edge">
<title>TIMER0_COMPA_vect-&gt;UpdateTimeElevadores</title>
<path fill="none" stroke="#000000" d="M245.9167,-143.8314C236.2858,-134.7074 224.497,-123.539 214.1587,-113.7449"/>
<polygon fill="#000000" stroke="#000000" points="208.2666,-108.1628 216.5501,-111.0514 211.1704,-110.9138 214.0742,-113.6648 214.0742,-113.6648 214.0742,-113.6648 211.1704,-110.9138 211.5983,-116.2783 208.2666,-108.1628 208.2666,-108.1628"/>
</g>
<!-- parpadearLED -->
<g id="node10" class="node">
<title>parpadearLED</title>
<path fill="none" stroke="#000000" d="M381.8077,-108C381.8077,-108 298.3817,-108 298.3817,-108 292.3817,-108 286.3817,-102 286.3817,-96 286.3817,-96 286.3817,-84 286.3817,-84 286.3817,-78 292.3817,-72 298.3817,-72 298.3817,-72 381.8077,-72 381.8077,-72 387.8077,-72 393.8077,-78 393.8077,-84 393.8077,-84 393.8077,-96 393.8077,-96 393.8077,-102 387.8077,-108 381.8077,-108"/>
<text text-anchor="middle" x="340.0947" y="-85.8" font-family="Times,serif" font-size="14.00" fill="#000000">parpadearLED()</text>
</g>
<!-- TIMER0_COMPA_vect&#45;&gt;parpadearLED -->
<g id="edge4" class="edge">
<title>TIMER0_COMPA_vect-&gt;parpadearLED</title>
<path fill="none" stroke="#000000" d="M284.0204,-143.8314C293.5245,-134.7074 305.1582,-123.539 315.3605,-113.7449"/>
<polygon fill="#000000" stroke="#000000" points="321.1751,-108.1628 317.8971,-116.3001 318.2895,-110.933 315.404,-113.7031 315.404,-113.7031 315.404,-113.7031 318.2895,-110.933 312.9108,-111.1061 321.1751,-108.1628 321.1751,-108.1628"/>
</g>
<!-- TIMER1_COMPA_vect -->
<g id="node2" class="node">
<title>TIMER1_COMPA_vect</title>
<path fill="none" stroke="#000000" d="M1261.3397,-180C1261.3397,-180 1100.8497,-180 1100.8497,-180 1094.8497,-180 1088.8497,-174 1088.8497,-168 1088.8497,-168 1088.8497,-156 1088.8497,-156 1088.8497,-150 1094.8497,-144 1100.8497,-144 1100.8497,-144 1261.3397,-144 1261.3397,-144 1267.3397,-144 1273.3397,-150 1273.3397,-156 1273.3397,-156 1273.3397,-168 1273.3397,-168 1273.3397,-174 1267.3397,-180 1261.3397,-180"/>
<text text-anchor="middle" x="1181.0947" y="-157.8" font-family="Times,serif" font-size="14.00" fill="#000000">ISR(TIMER1_COMPA_vect)</text>
</g>
<!-- parpadearFlag -->
<g id="node14" class="node">
<title>parpadearFlag</title>
<path fill="none" stroke="#000000" d="M1112.1621,-108C1112.1621,-108 1040.0273,-108 1040.0273,-108 1034.0273,-108 1028.0273,-102 1028.0273,-96 1028.0273,-96 1028.0273,-84 1028.0273,-84 1028.0273,-78 1034.0273,-72 1040.0273,-72 1040.0273,-72 1112.1621,-72 1112.1621,-72 1118.1621,-72 1124.1621,-78 1124.1621,-84 1124.1621,-84 1124.1621,-96 1124.1621,-96 1124.1621,-102 1118.1621,-108 1112.1621,-108"/>
<text text-anchor="middle" x="1076.0947" y="-85.8" font-family="Times,serif" font-size="14.00" fill="#000000">parpadearFlag</text>
</g>
<!-- TIMER1_COMPA_vect&#45;&gt;parpadearFlag -->
<g id="edge5" class="edge">
<title>TIMER1_COMPA_vect-&gt;parpadearFlag</title>
<path fill="none" stroke="#000000" d="M1154.5988,-143.8314C1140.9199,-134.4516 1124.0901,-122.9112 1109.5261,-112.9244"/>
<polygon fill="#000000" stroke="#000000" points="1102.5822,-108.1628 1111.2159,-109.7181 1105.8811,-110.425 1109.18,-112.6871 1109.18,-112.6871 1109.18,-112.6871 1105.8811,-110.425 1107.1441,-115.6561 1102.5822,-108.1628 1102.5822,-108.1628"/>
</g>
<!-- ultimoFlag -->
<g id="node15" class="node">
<title>ultimoFlag</title>
<path fill="none" stroke="#000000" d="M1208.0462,-108C1208.0462,-108 1154.1432,-108 1154.1432,-108 1148.1432,-108 1142.1432,-102 1142.1432,-96 1142.1432,-96 1142.1432,-84 1142.1432,-84 1142.1432,-78 1148.1432,-72 1154.1432,-72 1154.1432,-72 1208.0462,-72 1208.0462,-72 1214.0462,-72 1220.0462,-78 1220.0462,-84 1220.0462,-84 1220.0462,-96 1220.0462,-96 1220.0462,-102 1214.0462,-108 1208.0462,-108"/>
<text text-anchor="middle" x="1181.0947" y="-85.8" font-family="Times,serif" font-size="14.00" fill="#000000">ultimoFlag</text>
</g>
<!-- TIMER1_COMPA_vect&#45;&gt;ultimoFlag -->
<g id="edge6" class="edge">
<title>TIMER1_COMPA_vect-&gt;ultimoFlag</title>
<path fill="none" stroke="#000000" d="M1181.0947,-143.8314C1181.0947,-135.5386 1181.0947,-125.557 1181.0947,-116.4533"/>
<polygon fill="#000000" stroke="#000000" points="1181.0947,-108.4133 1184.6948,-116.4132 1181.0947,-112.4133 1181.0948,-116.4133 1181.0948,-116.4133 1181.0948,-116.4133 1181.0947,-112.4133 1177.4948,-116.4133 1181.0947,-108.4133 1181.0947,-108.4133"/>
</g>
<!-- disableTimer1Int -->
<g id="node16" class="node">
<title>disableTimer1Int</title>
<path fill="none" stroke="#000000" d="M1338.5107,-108C1338.5107,-108 1249.6787,-108 1249.6787,-108 1243.6787,-108 1237.6787,-102 1237.6787,-96 1237.6787,-96 1237.6787,-84 1237.6787,-84 1237.6787,-78 1243.6787,-72 1249.6787,-72 1249.6787,-72 1338.5107,-72 1338.5107,-72 1344.5107,-72 1350.5107,-78 1350.5107,-84 1350.5107,-84 1350.5107,-96 1350.5107,-96 1350.5107,-102 1344.5107,-108 1338.5107,-108"/>
<text text-anchor="middle" x="1294.0947" y="-85.8" font-family="Times,serif" font-size="14.00" fill="#000000">disableTimer1Int</text>
</g>
<!-- TIMER1_COMPA_vect&#45;&gt;disableTimer1Int -->
<g id="edge7" class="edge">
<title>TIMER1_COMPA_vect-&gt;disableTimer1Int</title>
<path fill="none" stroke="#000000" d="M1209.6094,-143.8314C1224.4642,-134.3663 1242.772,-122.7012 1258.543,-112.6524"/>
<polygon fill="#000000" stroke="#000000" points="1265.5892,-108.1628 1260.7768,-115.4978 1262.2157,-110.3123 1258.8423,-112.4617 1258.8423,-112.4617 1258.8423,-112.4617 1262.2157,-110.3123 1256.9078,-109.4257 1265.5892,-108.1628 1265.5892,-108.1628"/>
</g>
<!-- PCINT2_vect -->
<g id="node3" class="node">
<title>PCINT2_vect</title>
<path fill="none" stroke="#000000" d="M970.4546,-180C970.4546,-180 869.7348,-180 869.7348,-180 863.7348,-180 857.7348,-174 857.7348,-168 857.7348,-168 857.7348,-156 857.7348,-156 857.7348,-150 863.7348,-144 869.7348,-144 869.7348,-144 970.4546,-144 970.4546,-144 976.4546,-144 982.4546,-150 982.4546,-156 982.4546,-156 982.4546,-168 982.4546,-168 982.4546,-174 976.4546,-180 970.4546,-180"/>
<text text-anchor="middle" x="920.0947" y="-157.8" font-family="Times,serif" font-size="14.00" fill="#000000">ISR(PCINT2_vect)</text>
</g>
<!-- OnPinChangeBolos -->
<g id="node11" class="node">
<title>OnPinChangeBolos</title>
<path fill="none" stroke="#000000" d="M976.1341,-108C976.1341,-108 864.0553,-108 864.0553,-108 858.0553,-108 852.0553,-102 852.0553,-96 852.0553,-96 852.0553,-84 852.0553,-84 852.0553,-78 858.0553,-72 864.0553,-72 864.0553,-72 976.1341,-72 976.1341,-72 982.1341,-72 988.1341,-78 988.1341,-84 988.1341,-84 988.1341,-96 988.1341,-96 988.1341,-102 982.1341,-108 976.1341,-108"/>
<text text-anchor="middle" x="920.0947" y="-85.8" font-family="Times,serif" font-size="14.00" fill="#000000">OnPinChangeBolos()</text>
</g>
<!-- PCINT2_vect&#45;&gt;OnPinChangeBolos -->
<g id="edge8" class="edge">
<title>PCINT2_vect-&gt;OnPinChangeBolos</title>
<path fill="none" stroke="#000000" d="M920.0947,-143.8314C920.0947,-135.5386 920.0947,-125.557 920.0947,-116.4533"/>
<polygon fill="#000000" stroke="#000000" points="920.0947,-108.4133 923.6948,-116.4132 920.0947,-112.4133 920.0948,-116.4133 920.0948,-116.4133 920.0948,-116.4133 920.0947,-112.4133 916.4948,-116.4133 920.0947,-108.4133 920.0947,-108.4133"/>
</g>
<!-- INT0_vect -->
<g id="node4" class="node">
<title>INT0_vect</title>
<path fill="none" stroke="#000000" d="M1500.8356,-180C1500.8356,-180 1417.3538,-180 1417.3538,-180 1411.3538,-180 1405.3538,-174 1405.3538,-168 1405.3538,-168 1405.3538,-156 1405.3538,-156 1405.3538,-150 1411.3538,-144 1417.3538,-144 1417.3538,-144 1500.8356,-144 1500.8356,-144 1506.8356,-144 1512.8356,-150 1512.8356,-156 1512.8356,-156 1512.8356,-168 1512.8356,-168 1512.8356,-174 1506.8356,-180 1500.8356,-180"/>
<text text-anchor="middle" x="1459.0947" y="-157.8" font-family="Times,serif" font-size="14.00" fill="#000000">ISR(INT0_vect)</text>
</g>
<!-- OnSW2Interruption -->
<g id="node12" class="node">
<title>OnSW2Interruption</title>
<path fill="none" stroke="#000000" d="M1515.8882,-108C1515.8882,-108 1402.3012,-108 1402.3012,-108 1396.3012,-108 1390.3012,-102 1390.3012,-96 1390.3012,-96 1390.3012,-84 1390.3012,-84 1390.3012,-78 1396.3012,-72 1402.3012,-72 1402.3012,-72 1515.8882,-72 1515.8882,-72 1521.8882,-72 1527.8882,-78 1527.8882,-84 1527.8882,-84 1527.8882,-96 1527.8882,-96 1527.8882,-102 1521.8882,-108 1515.8882,-108"/>
<text text-anchor="middle" x="1459.0947" y="-85.8" font-family="Times,serif" font-size="14.00" fill="#000000">OnSW2Interruption()</text>
</g>
<!-- INT0_vect&#45;&gt;OnSW2Interruption -->
<g id="edge9" class="edge">
<title>INT0_vect-&gt;OnSW2Interruption</title>
<path fill="none" stroke="#000000" d="M1459.0947,-143.8314C1459.0947,-135.5386 1459.0947,-125.557 1459.0947,-116.4533"/>
<polygon fill="#000000" stroke="#000000" points="1459.0947,-108.4133 1462.6948,-116.4132 1459.0947,-112.4133 1459.0948,-116.4133 1459.0948,-116.4133 1459.0948,-116.4133 1459.0947,-112.4133 1455.4948,-116.4133 1459.0947,-108.4133 1459.0947,-108.4133"/>
</g>
<!-- INT2_vect -->
<g id="node5" class="node">
<title>INT2_vect</title>
<path fill="none" stroke="#000000" d="M1886.8356,-108C1886.8356,-108 1803.3538,-108 1803.3538,-108 1797.3538,-108 1791.3538,-102 1791.3538,-96 1791.3538,-96 1791.3538,-84 1791.3538,-84 1791.3538,-78 1797.3538,-72 1803.3538,-72 1803.3538,-72 1886.8356,-72 1886.8356,-72 1892.8356,-72 1898.8356,-78 1898.8356,-84 1898.8356,-84 1898.8356,-96 1898.8356,-96 1898.8356,-102 1892.8356,-108 1886.8356,-108"/>
<text text-anchor="middle" x="1845.0947" y="-85.8" font-family="Times,serif" font-size="14.00" fill="#000000">ISR(INT2_vect)</text>
</g>
<!-- habilitarInterrupcionesSensores -->
<g id="node17" class="node">
<title>habilitarInterrupcionesSensores</title>
<path fill="none" stroke="#000000" d="M2000.8601,-36C2000.8601,-36 1831.3293,-36 1831.3293,-36 1825.3293,-36 1819.3293,-30 1819.3293,-24 1819.3293,-24 1819.3293,-12 1819.3293,-12 1819.3293,-6 1825.3293,0 1831.3293,0 1831.3293,0 2000.8601,0 2000.8601,0 2006.8601,0 2012.8601,-6 2012.8601,-12 2012.8601,-12 2012.8601,-24 2012.8601,-24 2012.8601,-30 2006.8601,-36 2000.8601,-36"/>
<text text-anchor="middle" x="1916.0947" y="-13.8" font-family="Times,serif" font-size="14.00" fill="#000000">habilitarInterrupcionesSensores</text>
</g>
<!-- INT2_vect&#45;&gt;habilitarInterrupcionesSensores -->
<g id="edge10" class="edge">
<title>INT2_vect-&gt;habilitarInterrupcionesSensores</title>
<path fill="none" stroke="#000000" d="M1863.011,-71.8314C1871.8561,-62.8617 1882.6496,-51.9161 1892.1886,-42.2428"/>
<polygon fill="#000000" stroke="#000000" points="1897.9372,-36.4133 1894.8833,-44.6373 1895.1286,-39.2614 1892.32,-42.1096 1892.32,-42.1096 1892.32,-42.1096 1895.1286,-39.2614 1889.7566,-39.5818 1897.9372,-36.4133 1897.9372,-36.4133"/>
</g>
<!-- state -->
<g id="node18" class="node">
<title>state</title>
<path fill="none" stroke="#000000" d="M1789.0947,-36C1789.0947,-36 1759.0947,-36 1759.0947,-36 1753.0947,-36 1747.0947,-30 1747.0947,-24 1747.0947,-24 1747.0947,-12 1747.0947,-12 1747.0947,-6 1753.0947,0 1759.0947,0 1759.0947,0 1789.0947,0 1789.0947,0 1795.0947,0 1801.0947,-6 1801.0947,-12 1801.0947,-12 1801.0947,-24 1801.0947,-24 1801.0947,-30 1795.0947,-36 1789.0947,-36"/>
<text text-anchor="middle" x="1774.0947" y="-13.8" font-family="Times,serif" font-size="14.00" fill="#000000">state</text>
</g>
<!-- INT2_vect&#45;&gt;state -->
<g id="edge11" class="edge">
<title>INT2_vect-&gt;state</title>
<path fill="none" stroke="#000000" d="M1827.1784,-71.8314C1818.3333,-62.8617 1807.5398,-51.9161 1798.0008,-42.2428"/>
<polygon fill="#000000" stroke="#000000" points="1792.2522,-36.4133 1800.4328,-39.5818 1795.0608,-39.2614 1797.8694,-42.1096 1797.8694,-42.1096 1797.8694,-42.1096 1795.0608,-39.2614 1795.3061,-44.6373 1792.2522,-36.4133 1792.2522,-36.4133"/>
</g>
<!-- INT3_vect -->
<g id="node6" class="node">
<title>INT3_vect</title>
<path fill="none" stroke="#000000" d="M2374.8356,-180C2374.8356,-180 2291.3538,-180 2291.3538,-180 2285.3538,-180 2279.3538,-174 2279.3538,-168 2279.3538,-168 2279.3538,-156 2279.3538,-156 2279.3538,-150 2285.3538,-144 2291.3538,-144 2291.3538,-144 2374.8356,-144 2374.8356,-144 2380.8356,-144 2386.8356,-150 2386.8356,-156 2386.8356,-156 2386.8356,-168 2386.8356,-168 2386.8356,-174 2380.8356,-180 2374.8356,-180"/>
<text text-anchor="middle" x="2333.0947" y="-157.8" font-family="Times,serif" font-size="14.00" fill="#000000">ISR(INT3_vect)</text>
</g>
<!-- OnSW5Interruption -->
<g id="node13" class="node">
<title>OnSW5Interruption</title>
<path fill="none" stroke="#000000" d="M2389.8882,-108C2389.8882,-108 2276.3012,-108 2276.3012,-108 2270.3012,-108 2264.3012,-102 2264.3012,-96 2264.3012,-96 2264.3012,-84 2264.3012,-84 2264.3012,-78 2270.3012,-72 2276.3012,-72 2276.3012,-72 2389.8882,-72 2389.8882,-72 2395.8882,-72 2401.8882,-78 2401.8882,-84 2401.8882,-84 2401.8882,-96 2401.8882,-96 2401.8882,-102 2395.8882,-108 2389.8882,-108"/>
<text text-anchor="middle" x="2333.0947" y="-85.8" font-family="Times,serif" font-size="14.00" fill="#000000">OnSW5Interruption()</text>
</g>
<!-- INT3_vect&#45;&gt;OnSW5Interruption -->
<g id="edge12" class="edge">
<title>INT3_vect-&gt;OnSW5Interruption</title>
<path fill="none" stroke="#000000" d="M2333.0947,-143.8314C2333.0947,-135.5386 2333.0947,-125.557 2333.0947,-116.4533"/>
<polygon fill="#000000" stroke="#000000" points="2333.0947,-108.4133 2336.6948,-116.4132 2333.0947,-112.4133 2333.0948,-116.4133 2333.0948,-116.4133 2333.0948,-116.4133 2333.0947,-112.4133 2329.4948,-116.4133 2333.0947,-108.4133 2333.0947,-108.4133"/>
</g>
<!-- apagarDisplay -->
<g id="node19" class="node">
<title>apagarDisplay</title>
<path fill="none" stroke="#000000" d="M464.4462,-36C464.4462,-36 391.7432,-36 391.7432,-36 385.7432,-36 379.7432,-30 379.7432,-24 379.7432,-24 379.7432,-12 379.7432,-12 379.7432,-6 385.7432,0 391.7432,0 391.7432,0 464.4462,0 464.4462,0 470.4462,0 476.4462,-6 476.4462,-12 476.4462,-12 476.4462,-24 476.4462,-24 476.4462,-30 470.4462,-36 464.4462,-36"/>
<text text-anchor="middle" x="428.0947" y="-13.8" font-family="Times,serif" font-size="14.00" fill="#000000">apagarDisplay</text>
</g>
<!-- DisplayUpdater&#45;&gt;apagarDisplay -->
<g id="edge13" class="edge">
<title>DisplayUpdater-&gt;apagarDisplay</title>
<path fill="none" stroke="#000000" d="M490.1503,-71.8314C479.5341,-62.6221 466.5169,-51.3301 455.1511,-41.4706"/>
<polygon fill="#000000" stroke="#000000" points="449.0324,-36.1628 457.4346,-38.6857 452.054,-38.784 455.0755,-41.4051 455.0755,-41.4051 455.0755,-41.4051 452.054,-38.784 452.7165,-44.1245 449.0324,-36.1628 449.0324,-36.1628"/>
</g>
<!-- setDisplay -->
<g id="node20" class="node">
<title>setDisplay</title>
<path fill="none" stroke="#000000" d="M557.6916,-36C557.6916,-36 506.4978,-36 506.4978,-36 500.4978,-36 494.4978,-30 494.4978,-24 494.4978,-24 494.4978,-12 494.4978,-12 494.4978,-6 500.4978,0 506.4978,0 506.4978,0 557.6916,0 557.6916,0 563.6916,0 569.6916,-6 569.6916,-12 569.6916,-12 569.6916,-24 569.6916,-24 569.6916,-30 563.6916,-36 557.6916,-36"/>
<text text-anchor="middle" x="532.0947" y="-13.8" font-family="Times,serif" font-size="14.00" fill="#000000">setDisplay</text>
</g>
<!-- DisplayUpdater&#45;&gt;setDisplay -->
<g id="edge14" class="edge">
<title>DisplayUpdater-&gt;setDisplay</title>
<path fill="none" stroke="#000000" d="M516.3939,-71.8314C518.8373,-63.454 521.7834,-53.3531 524.4603,-44.1749"/>
<polygon fill="#000000" stroke="#000000" points="526.7242,-36.4133 527.9401,-45.1013 525.6041,-40.2533 524.4841,-44.0933 524.4841,-44.0933 524.4841,-44.0933 525.6041,-40.2533 521.0281,-43.0852 526.7242,-36.4133 526.7242,-36.4133"/>
</g>
<!-- estado_final -->
<g id="node21" class="node">
<title>estado_final</title>
<path fill="none" stroke="#000000" d="M660.5166,-36C660.5166,-36 599.6728,-36 599.6728,-36 593.6728,-36 587.6728,-30 587.6728,-24 587.6728,-24 587.6728,-12 587.6728,-12 587.6728,-6 593.6728,0 599.6728,0 599.6728,0 660.5166,0 660.5166,0 666.5166,0 672.5166,-6 672.5166,-12 672.5166,-12 672.5166,-24 672.5166,-24 672.5166,-30 666.5166,-36 660.5166,-36"/>
<text text-anchor="middle" x="630.0947" y="-13.8" font-family="Times,serif" font-size="14.00" fill="#000000">estado_final</text>
</g>
<!-- DisplayUpdater&#45;&gt;estado_final -->
<g id="edge15" class="edge">
<title>DisplayUpdater-&gt;estado_final</title>
<path fill="none" stroke="#000000" d="M541.1234,-71.8314C556.908,-62.281 576.3946,-50.4908 593.1036,-40.3812"/>
<polygon fill="#000000" stroke="#000000" points="600.0756,-36.1628 595.0945,-43.3843 596.6532,-38.2335 593.2309,-40.3042 593.2309,-40.3042 593.2309,-40.3042 596.6532,-38.2335 591.3673,-37.2241 600.0756,-36.1628 600.0756,-36.1628"/>
</g>
<!-- parpadeos -->
<g id="node22" class="node">
<title>parpadeos</title>
<path fill="none" stroke="#000000" d="M751.3441,-36C751.3441,-36 702.8453,-36 702.8453,-36 696.8453,-36 690.8453,-30 690.8453,-24 690.8453,-24 690.8453,-12 690.8453,-12 690.8453,-6 696.8453,0 702.8453,0 702.8453,0 751.3441,0 751.3441,0 757.3441,0 763.3441,-6 763.3441,-12 763.3441,-12 763.3441,-24 763.3441,-24 763.3441,-30 757.3441,-36 751.3441,-36"/>
<text text-anchor="middle" x="727.0947" y="-13.8" font-family="Times,serif" font-size="14.00" fill="#000000">parpadeos</text>
</g>
<!-- DisplayUpdater&#45;&gt;parpadeos -->
<g id="edge16" class="edge">
<title>DisplayUpdater-&gt;parpadeos</title>
<path fill="none" stroke="#000000" d="M568.0709,-72.9218C601.2296,-62.7291 643.7296,-49.2291 681.0947,-36 681.7844,-35.7558 682.4792,-35.5079 683.178,-35.2568"/>
<polygon fill="#000000" stroke="#000000" points="690.7682,-32.4679 684.5007,-38.6062 687.0136,-33.8475 683.2591,-35.2271 683.2591,-35.2271 683.2591,-35.2271 687.0136,-33.8475 682.0174,-31.848 690.7682,-32.4679 690.7682,-32.4679"/>
</g>
<!-- puntuacion -->
<g id="node23" class="node">
<title>puntuacion</title>
<path fill="none" stroke="#000000" d="M847.3054,-36C847.3054,-36 792.884,-36 792.884,-36 786.884,-36 780.884,-30 780.884,-24 780.884,-24 780.884,-12 780.884,-12 780.884,-6 786.884,0 792.884,0 792.884,0 847.3054,0 847.3054,0 853.3054,0 859.3054,-6 859.3054,-12 859.3054,-12 859.3054,-24 859.3054,-24 859.3054,-30 853.3054,-36 847.3054,-36"/>
<text text-anchor="middle" x="820.0947" y="-13.8" font-family="Times,serif" font-size="14.00" fill="#000000">puntuacion</text>
</g>
<!-- DisplayUpdater&#45;&gt;puntuacion -->
<g id="edge17" class="edge">
<title>DisplayUpdater-&gt;puntuacion</title>
<path fill="none" stroke="#000000" d="M568.2268,-80.8056C621.5232,-71.6122 702.9715,-55.9811 772.0947,-36 772.4581,-35.895 772.8226,-35.7884 773.1882,-35.6805"/>
<polygon fill="#000000" stroke="#000000" points="780.9681,-33.2361 774.4151,-39.0686 777.1521,-34.4351 773.336,-35.6342 773.336,-35.6342 773.336,-35.6342 777.1521,-34.4351 772.2568,-32.1997 780.9681,-33.2361 780.9681,-33.2361"/>
</g>
<!-- PORTB -->
<g id="node24" class="node">
<title>PORTB</title>
<path fill="none" stroke="#000000" d="M277.7098,-36C277.7098,-36 240.4796,-36 240.4796,-36 234.4796,-36 228.4796,-30 228.4796,-24 228.4796,-24 228.4796,-12 228.4796,-12 228.4796,-6 234.4796,0 240.4796,0 240.4796,0 277.7098,0 277.7098,0 283.7098,0 289.7098,-6 289.7098,-12 289.7098,-12 289.7098,-24 289.7098,-24 289.7098,-30 283.7098,-36 277.7098,-36"/>
<text text-anchor="middle" x="259.0947" y="-13.8" font-family="Times,serif" font-size="14.00" fill="#000000">PORTB</text>
</g>
<!-- DisplayUpdater&#45;&gt;PORTB -->
<g id="edge18" class="edge">
<title>DisplayUpdater-&gt;PORTB</title>
<path fill="none" stroke="#000000" d="M454.0638,-78.2955C410.9296,-68.7676 350.547,-53.9771 299.0947,-36 298.5286,-35.8022 297.9594,-35.5995 297.388,-35.3925"/>
<polygon fill="#000000" stroke="#000000" points="289.8882,-32.4939 298.6481,-32.0201 293.6193,-33.936 297.3503,-35.378 297.3503,-35.378 297.3503,-35.378 293.6193,-33.936 296.0525,-38.7359 289.8882,-32.4939 289.8882,-32.4939"/>
</g>
<!-- PINB -->
<g id="node25" class="node">
<title>PINB</title>
<path fill="none" stroke="#000000" d="M350.0947,-36C350.0947,-36 320.0947,-36 320.0947,-36 314.0947,-36 308.0947,-30 308.0947,-24 308.0947,-24 308.0947,-12 308.0947,-12 308.0947,-6 314.0947,0 320.0947,0 320.0947,0 350.0947,0 350.0947,0 356.0947,0 362.0947,-6 362.0947,-12 362.0947,-12 362.0947,-24 362.0947,-24 362.0947,-30 356.0947,-36 350.0947,-36"/>
<text text-anchor="middle" x="335.0947" y="-13.8" font-family="Times,serif" font-size="14.00" fill="#000000">PINB</text>
</g>
<!-- DisplayUpdater&#45;&gt;PINB -->
<g id="edge19" class="edge">
<title>DisplayUpdater-&gt;PINB</title>
<path fill="none" stroke="#000000" d="M460.7297,-71.9011C433.8699,-61.9169 400.4059,-48.9453 371.0947,-36 370.6552,-35.8059 370.2134,-35.6093 369.7697,-35.4103"/>
<polygon fill="#000000" stroke="#000000" points="362.4835,-32.032 371.2556,-32.1312 366.1124,-33.7146 369.7413,-35.3972 369.7413,-35.3972 369.7413,-35.3972 366.1124,-33.7146 368.2269,-38.6632 362.4835,-32.032 362.4835,-32.032"/>
</g>
<!-- current_time -->
<g id="node42" class="node">
<title>current_time</title>
<path fill="none" stroke="#000000" d="M198.6234,-36C198.6234,-36 135.566,-36 135.566,-36 129.566,-36 123.566,-30 123.566,-24 123.566,-24 123.566,-12 123.566,-12 123.566,-6 129.566,0 135.566,0 135.566,0 198.6234,0 198.6234,0 204.6234,0 210.6234,-6 210.6234,-12 210.6234,-12 210.6234,-24 210.6234,-24 210.6234,-30 204.6234,-36 198.6234,-36"/>
<text text-anchor="middle" x="167.0947" y="-13.8" font-family="Times,serif" font-size="14.00" fill="#000000">current_time</text>
</g>
<!-- UpdateTimeElevadores&#45;&gt;current_time -->
<g id="edge38" class="edge">
<title>UpdateTimeElevadores-&gt;current_time</title>
<path fill="none" stroke="#000000" d="M183.5432,-71.8314C180.9834,-63.454 177.897,-53.3531 175.0926,-44.1749"/>
<polygon fill="#000000" stroke="#000000" points="172.721,-36.4133 178.5017,-43.0121 173.8899,-40.2387 175.0588,-44.0641 175.0588,-44.0641 175.0588,-44.0641 173.8899,-40.2387 171.6159,-45.1161 172.721,-36.4133 172.721,-36.4133"/>
</g>
<!-- OnPinChangeBolos&#45;&gt;puntuacion -->
<g id="edge20" class="edge">
<title>OnPinChangeBolos-&gt;puntuacion</title>
<path fill="none" stroke="#000000" d="M894.8605,-71.8314C881.833,-62.4516 865.8046,-50.9112 851.9341,-40.9244"/>
<polygon fill="#000000" stroke="#000000" points="845.3208,-36.1628 853.9167,-37.9158 848.567,-38.5001 851.8131,-40.8373 851.8131,-40.8373 851.8131,-40.8373 848.567,-38.5001 849.7096,-43.7588 845.3208,-36.1628 845.3208,-36.1628"/>
</g>
<!-- puertoactual -->
<g id="node26" class="node">
<title>puertoactual</title>
<path fill="none" stroke="#000000" d="M950.7857,-36C950.7857,-36 889.4037,-36 889.4037,-36 883.4037,-36 877.4037,-30 877.4037,-24 877.4037,-24 877.4037,-12 877.4037,-12 877.4037,-6 883.4037,0 889.4037,0 889.4037,0 950.7857,0 950.7857,0 956.7857,0 962.7857,-6 962.7857,-12 962.7857,-12 962.7857,-24 962.7857,-24 962.7857,-30 956.7857,-36 950.7857,-36"/>
<text text-anchor="middle" x="920.0947" y="-13.8" font-family="Times,serif" font-size="14.00" fill="#000000">puertoactual</text>
</g>
<!-- OnPinChangeBolos&#45;&gt;puertoactual -->
<g id="edge21" class="edge">
<title>OnPinChangeBolos-&gt;puertoactual</title>
<path fill="none" stroke="#000000" d="M920.0947,-71.8314C920.0947,-63.5386 920.0947,-53.557 920.0947,-44.4533"/>
<polygon fill="#000000" stroke="#000000" points="920.0947,-36.4133 923.6948,-44.4132 920.0947,-40.4133 920.0948,-44.4133 920.0948,-44.4133 920.0948,-44.4133 920.0947,-40.4133 916.4948,-44.4133 920.0947,-36.4133 920.0947,-36.4133"/>
</g>
<!-- PCMSK2 -->
<g id="node27" class="node">
<title>PCMSK2</title>
<path fill="none" stroke="#000000" d="M1039.5492,-36C1039.5492,-36 992.6402,-36 992.6402,-36 986.6402,-36 980.6402,-30 980.6402,-24 980.6402,-24 980.6402,-12 980.6402,-12 980.6402,-6 986.6402,0 992.6402,0 992.6402,0 1039.5492,0 1039.5492,0 1045.5492,0 1051.5492,-6 1051.5492,-12 1051.5492,-12 1051.5492,-24 1051.5492,-24 1051.5492,-30 1045.5492,-36 1039.5492,-36"/>
<text text-anchor="middle" x="1016.0947" y="-13.8" font-family="Times,serif" font-size="14.00" fill="#000000">PCMSK2</text>
</g>
<!-- OnPinChangeBolos&#45;&gt;PCMSK2 -->
<g id="edge22" class="edge">
<title>OnPinChangeBolos-&gt;PCMSK2</title>
<path fill="none" stroke="#000000" d="M944.3196,-71.8314C956.7122,-62.5368 971.9336,-51.1208 985.1652,-41.1971"/>
<polygon fill="#000000" stroke="#000000" points="991.8776,-36.1628 987.6376,-43.8429 988.6776,-38.5628 985.4776,-40.9629 985.4776,-40.9629 985.4776,-40.9629 988.6776,-38.5628 983.3176,-38.0829 991.8776,-36.1628 991.8776,-36.1628"/>
</g>
<!-- OnSW2Interruption&#45;&gt;state -->
<g id="edge25" class="edge">
<title>OnSW2Interruption-&gt;state</title>
<path fill="none" stroke="#000000" d="M1527.8043,-82.0148C1585.1153,-74.1038 1668.3718,-59.6807 1738.0947,-36 1738.5496,-35.8455 1739.006,-35.6863 1739.4635,-35.5228"/>
<polygon fill="#000000" stroke="#000000" points="1746.9091,-32.5533 1740.812,-38.8609 1743.1937,-34.0351 1739.4783,-35.517 1739.4783,-35.517 1739.4783,-35.517 1743.1937,-34.0351 1738.1446,-32.1731 1746.9091,-32.5533 1746.9091,-32.5533"/>
</g>
<!-- last_interruption_time -->
<g id="node28" class="node">
<title>last_interruption_time</title>
<path fill="none" stroke="#000000" d="M1197.5203,-36C1197.5203,-36 1080.6691,-36 1080.6691,-36 1074.6691,-36 1068.6691,-30 1068.6691,-24 1068.6691,-24 1068.6691,-12 1068.6691,-12 1068.6691,-6 1074.6691,0 1080.6691,0 1080.6691,0 1197.5203,0 1197.5203,0 1203.5203,0 1209.5203,-6 1209.5203,-12 1209.5203,-12 1209.5203,-24 1209.5203,-24 1209.5203,-30 1203.5203,-36 1197.5203,-36"/>
<text text-anchor="middle" x="1139.0947" y="-13.8" font-family="Times,serif" font-size="14.00" fill="#000000">last_interruption_time</text>
</g>
<!-- OnSW2Interruption&#45;&gt;last_interruption_time -->
<g id="edge23" class="edge">
<title>OnSW2Interruption-&gt;last_interruption_time</title>
<path fill="none" stroke="#000000" d="M1390.2582,-74.6451C1342.0461,-63.8738 1276.1246,-49.1122 1218.0947,-36 1217.9232,-35.9612 1217.7515,-35.9224 1217.5795,-35.8836"/>
<polygon fill="#000000" stroke="#000000" points="1209.7271,-34.1067 1218.3244,-32.3612 1213.6284,-34.9895 1217.5298,-35.8724 1217.5298,-35.8724 1217.5298,-35.8724 1213.6284,-34.9895 1216.7352,-39.3836 1209.7271,-34.1067 1209.7271,-34.1067"/>
</g>
<!-- position -->
<g id="node29" class="node">
<title>position</title>
<path fill="none" stroke="#000000" d="M1276.7112,-36C1276.7112,-36 1239.4782,-36 1239.4782,-36 1233.4782,-36 1227.4782,-30 1227.4782,-24 1227.4782,-24 1227.4782,-12 1227.4782,-12 1227.4782,-6 1233.4782,0 1239.4782,0 1239.4782,0 1276.7112,0 1276.7112,0 1282.7112,0 1288.7112,-6 1288.7112,-12 1288.7112,-12 1288.7112,-24 1288.7112,-24 1288.7112,-30 1282.7112,-36 1276.7112,-36"/>
<text text-anchor="middle" x="1258.0947" y="-13.8" font-family="Times,serif" font-size="14.00" fill="#000000">position</text>
</g>
<!-- OnSW2Interruption&#45;&gt;position -->
<g id="edge24" class="edge">
<title>OnSW2Interruption-&gt;position</title>
<path fill="none" stroke="#000000" d="M1399.6631,-71.9282C1368.7762,-62.1001 1330.5844,-49.2629 1297.0947,-36 1296.93,-35.9348 1296.7651,-35.8692 1296.5998,-35.8034"/>
<polygon fill="#000000" stroke="#000000" points="1289.0403,-32.658 1297.8094,-32.4075 1292.7333,-34.1947 1296.4264,-35.7313 1296.4264,-35.7313 1296.4264,-35.7313 1292.7333,-34.1947 1295.0435,-39.0551 1289.0403,-32.658 1289.0403,-32.658"/>
</g>
<!-- lanzadorFlag -->
<g id="node30" class="node">
<title>lanzadorFlag</title>
<path fill="none" stroke="#000000" d="M1383.6775,-36C1383.6775,-36 1318.5119,-36 1318.5119,-36 1312.5119,-36 1306.5119,-30 1306.5119,-24 1306.5119,-24 1306.5119,-12 1306.5119,-12 1306.5119,-6 1312.5119,0 1318.5119,0 1318.5119,0 1383.6775,0 1383.6775,0 1389.6775,0 1395.6775,-6 1395.6775,-12 1395.6775,-12 1395.6775,-24 1395.6775,-24 1395.6775,-30 1389.6775,-36 1383.6775,-36"/>
<text text-anchor="middle" x="1351.0947" y="-13.8" font-family="Times,serif" font-size="14.00" fill="#000000">lanzadorFlag</text>
</g>
<!-- OnSW2Interruption&#45;&gt;lanzadorFlag -->
<g id="edge26" class="edge">
<title>OnSW2Interruption-&gt;lanzadorFlag</title>
<path fill="none" stroke="#000000" d="M1431.8417,-71.8314C1417.6442,-62.3663 1400.1464,-50.7012 1385.0733,-40.6524"/>
<polygon fill="#000000" stroke="#000000" points="1378.3389,-36.1628 1386.9923,-37.6051 1381.6672,-38.3817 1384.9954,-40.6005 1384.9954,-40.6005 1384.9954,-40.6005 1381.6672,-38.3817 1382.9984,-43.5959 1378.3389,-36.1628 1378.3389,-36.1628"/>
</g>
<!-- rightInterrupt -->
<g id="node31" class="node">
<title>rightInterrupt</title>
<path fill="none" stroke="#000000" d="M1493.0151,-36C1493.0151,-36 1425.1743,-36 1425.1743,-36 1419.1743,-36 1413.1743,-30 1413.1743,-24 1413.1743,-24 1413.1743,-12 1413.1743,-12 1413.1743,-6 1419.1743,0 1425.1743,0 1425.1743,0 1493.0151,0 1493.0151,0 1499.0151,0 1505.0151,-6 1505.0151,-12 1505.0151,-12 1505.0151,-24 1505.0151,-24 1505.0151,-30 1499.0151,-36 1493.0151,-36"/>
<text text-anchor="middle" x="1459.0947" y="-13.8" font-family="Times,serif" font-size="14.00" fill="#000000">rightInterrupt</text>
</g>
<!-- OnSW2Interruption&#45;&gt;rightInterrupt -->
<g id="edge27" class="edge">
<title>OnSW2Interruption-&gt;rightInterrupt</title>
<path fill="none" stroke="#000000" d="M1459.0947,-71.8314C1459.0947,-63.5386 1459.0947,-53.557 1459.0947,-44.4533"/>
<polygon fill="#000000" stroke="#000000" points="1459.0947,-36.4133 1462.6948,-44.4132 1459.0947,-40.4133 1459.0948,-44.4133 1459.0948,-44.4133 1459.0948,-44.4133 1459.0947,-40.4133 1455.4948,-44.4133 1459.0947,-36.4133 1459.0947,-36.4133"/>
</g>
<!-- middleInterrupt -->
<g id="node32" class="node">
<title>middleInterrupt</title>
<path fill="none" stroke="#000000" d="M1614.9588,-36C1614.9588,-36 1535.2306,-36 1535.2306,-36 1529.2306,-36 1523.2306,-30 1523.2306,-24 1523.2306,-24 1523.2306,-12 1523.2306,-12 1523.2306,-6 1529.2306,0 1535.2306,0 1535.2306,0 1614.9588,0 1614.9588,0 1620.9588,0 1626.9588,-6 1626.9588,-12 1626.9588,-12 1626.9588,-24 1626.9588,-24 1626.9588,-30 1620.9588,-36 1614.9588,-36"/>
<text text-anchor="middle" x="1575.0947" y="-13.8" font-family="Times,serif" font-size="14.00" fill="#000000">middleInterrupt</text>
</g>
<!-- OnSW2Interruption&#45;&gt;middleInterrupt -->
<g id="edge28" class="edge">
<title>OnSW2Interruption-&gt;middleInterrupt</title>
<path fill="none" stroke="#000000" d="M1488.3664,-71.8314C1503.6157,-62.3663 1522.4095,-50.7012 1538.5992,-40.6524"/>
<polygon fill="#000000" stroke="#000000" points="1545.8324,-36.1628 1540.9338,-43.4405 1542.4338,-38.2723 1539.0352,-40.3818 1539.0352,-40.3818 1539.0352,-40.3818 1542.4338,-38.2723 1537.1367,-37.3231 1545.8324,-36.1628 1545.8324,-36.1628"/>
</g>
<!-- leftInterrupt -->
<g id="node33" class="node">
<title>leftInterrupt</title>
<path fill="none" stroke="#000000" d="M1716.7295,-36C1716.7295,-36 1657.4599,-36 1657.4599,-36 1651.4599,-36 1645.4599,-30 1645.4599,-24 1645.4599,-24 1645.4599,-12 1645.4599,-12 1645.4599,-6 1651.4599,0 1657.4599,0 1657.4599,0 1716.7295,0 1716.7295,0 1722.7295,0 1728.7295,-6 1728.7295,-12 1728.7295,-12 1728.7295,-24 1728.7295,-24 1728.7295,-30 1722.7295,-36 1716.7295,-36"/>
<text text-anchor="middle" x="1687.0947" y="-13.8" font-family="Times,serif" font-size="14.00" fill="#000000">leftInterrupt</text>
</g>
<!-- OnSW2Interruption&#45;&gt;leftInterrupt -->
<g id="edge29" class="edge">
<title>OnSW2Interruption-&gt;leftInterrupt</title>
<path fill="none" stroke="#000000" d="M1520.7364,-71.9061C1554.8509,-61.7138 1597.9452,-48.5452 1636.0947,-36 1636.6633,-35.813 1637.2353,-35.6242 1637.81,-35.4337"/>
<polygon fill="#000000" stroke="#000000" points="1645.3963,-32.8819 1638.9615,-38.8446 1641.605,-34.1572 1637.8138,-35.4325 1637.8138,-35.4325 1637.8138,-35.4325 1641.605,-34.1572 1636.666,-32.0203 1645.3963,-32.8819 1645.3963,-32.8819"/>
</g>
<!-- ERpos -->
<g id="node34" class="node">
<title>ERpos</title>
<path fill="none" stroke="#000000" d="M2073.0947,-36C2073.0947,-36 2043.0947,-36 2043.0947,-36 2037.0947,-36 2031.0947,-30 2031.0947,-24 2031.0947,-24 2031.0947,-12 2031.0947,-12 2031.0947,-6 2037.0947,0 2043.0947,0 2043.0947,0 2073.0947,0 2073.0947,0 2079.0947,0 2085.0947,-6 2085.0947,-12 2085.0947,-12 2085.0947,-24 2085.0947,-24 2085.0947,-30 2079.0947,-36 2073.0947,-36"/>
<text text-anchor="middle" x="2058.0947" y="-13.8" font-family="Times,serif" font-size="14.00" fill="#000000">ERpos</text>
</g>
<!-- OnSW5Interruption&#45;&gt;ERpos -->
<g id="edge30" class="edge">
<title>OnSW5Interruption-&gt;ERpos</title>
<path fill="none" stroke="#000000" d="M2264.3776,-79.0258C2215.9289,-70.1956 2149.9813,-55.9535 2094.0947,-36 2093.6423,-35.8385 2093.1882,-35.6726 2092.7328,-35.5028"/>
<polygon fill="#000000" stroke="#000000" points="2085.3126,-32.4606 2094.0803,-32.1645 2089.0136,-33.978 2092.7146,-35.4954 2092.7146,-35.4954 2092.7146,-35.4954 2089.0136,-33.978 2091.349,-38.8263 2085.3126,-32.4606 2085.3126,-32.4606"/>
</g>
<!-- bandera -->
<g id="node35" class="node">
<title>bandera</title>
<path fill="none" stroke="#000000" d="M2151.3999,-36C2151.3999,-36 2114.7895,-36 2114.7895,-36 2108.7895,-36 2102.7895,-30 2102.7895,-24 2102.7895,-24 2102.7895,-12 2102.7895,-12 2102.7895,-6 2108.7895,0 2114.7895,0 2114.7895,0 2151.3999,0 2151.3999,0 2157.3999,0 2163.3999,-6 2163.3999,-12 2163.3999,-12 2163.3999,-24 2163.3999,-24 2163.3999,-30 2157.3999,-36 2151.3999,-36"/>
<text text-anchor="middle" x="2133.0947" y="-13.8" font-family="Times,serif" font-size="14.00" fill="#000000">bandera</text>
</g>
<!-- OnSW5Interruption&#45;&gt;bandera -->
<g id="edge31" class="edge">
<title>OnSW5Interruption-&gt;bandera</title>
<path fill="none" stroke="#000000" d="M2274.0369,-71.8929C2243.3426,-62.0553 2205.3861,-49.2203 2172.0947,-36 2171.7482,-35.8624 2171.4003,-35.7233 2171.0513,-35.5828"/>
<polygon fill="#000000" stroke="#000000" points="2163.6149,-32.4677 2172.3846,-32.2383 2167.3043,-34.0132 2170.9937,-35.5587 2170.9937,-35.5587 2170.9937,-35.5587 2167.3043,-34.0132 2169.6027,-38.8792 2163.6149,-32.4677 2163.6149,-32.4677"/>
</g>
<!-- readBit -->
<g id="node36" class="node">
<title>readBit</title>
<path fill="none" stroke="#000000" d="M2226.8027,-36C2226.8027,-36 2193.3867,-36 2193.3867,-36 2187.3867,-36 2181.3867,-30 2181.3867,-24 2181.3867,-24 2181.3867,-12 2181.3867,-12 2181.3867,-6 2187.3867,0 2193.3867,0 2193.3867,0 2226.8027,0 2226.8027,0 2232.8027,0 2238.8027,-6 2238.8027,-12 2238.8027,-12 2238.8027,-24 2238.8027,-24 2238.8027,-30 2232.8027,-36 2226.8027,-36"/>
<text text-anchor="middle" x="2210.0947" y="-13.8" font-family="Times,serif" font-size="14.00" fill="#000000">readBit</text>
</g>
<!-- OnSW5Interruption&#45;&gt;readBit -->
<g id="edge32" class="edge">
<title>OnSW5Interruption-&gt;readBit</title>
<path fill="none" stroke="#000000" d="M2302.0566,-71.8314C2285.1188,-61.9165 2264.0567,-49.5875 2246.3646,-39.2312"/>
<polygon fill="#000000" stroke="#000000" points="2239.0104,-34.9263 2247.7332,-35.8609 2242.4625,-36.947 2245.9146,-38.9678 2245.9146,-38.9678 2245.9146,-38.9678 2242.4625,-36.947 2244.0959,-42.0746 2239.0104,-34.9263 2239.0104,-34.9263"/>
</g>
<!-- clearBit -->
<g id="node37" class="node">
<title>clearBit</title>
<path fill="none" stroke="#000000" d="M2305.4083,-36C2305.4083,-36 2268.7811,-36 2268.7811,-36 2262.7811,-36 2256.7811,-30 2256.7811,-24 2256.7811,-24 2256.7811,-12 2256.7811,-12 2256.7811,-6 2262.7811,0 2268.7811,0 2268.7811,0 2305.4083,0 2305.4083,0 2311.4083,0 2317.4083,-6 2317.4083,-12 2317.4083,-12 2317.4083,-24 2317.4083,-24 2317.4083,-30 2311.4083,-36 2305.4083,-36"/>
<text text-anchor="middle" x="2287.0947" y="-13.8" font-family="Times,serif" font-size="14.00" fill="#000000">clearBit</text>
</g>
<!-- OnSW5Interruption&#45;&gt;clearBit -->
<g id="edge33" class="edge">
<title>OnSW5Interruption-&gt;clearBit</title>
<path fill="none" stroke="#000000" d="M2321.487,-71.8314C2315.9726,-63.2001 2309.2893,-52.7394 2303.2862,-43.3432"/>
<polygon fill="#000000" stroke="#000000" points="2298.8587,-36.4133 2306.1996,-41.2166 2301.0123,-39.7841 2303.1659,-43.1549 2303.1659,-43.1549 2303.1659,-43.1549 2301.0123,-39.7841 2300.1322,-45.0931 2298.8587,-36.4133 2298.8587,-36.4133"/>
</g>
<!-- M5_diPORT -->
<g id="node38" class="node">
<title>M5_diPORT</title>
<path fill="none" stroke="#000000" d="M2412.7084,-36C2412.7084,-36 2347.481,-36 2347.481,-36 2341.481,-36 2335.481,-30 2335.481,-24 2335.481,-24 2335.481,-12 2335.481,-12 2335.481,-6 2341.481,0 2347.481,0 2347.481,0 2412.7084,0 2412.7084,0 2418.7084,0 2424.7084,-6 2424.7084,-12 2424.7084,-12 2424.7084,-24 2424.7084,-24 2424.7084,-30 2418.7084,-36 2412.7084,-36"/>
<text text-anchor="middle" x="2380.0947" y="-13.8" font-family="Times,serif" font-size="14.00" fill="#000000">M5_diPORT</text>
</g>
<!-- OnSW5Interruption&#45;&gt;M5_diPORT -->
<g id="edge34" class="edge">
<title>OnSW5Interruption-&gt;M5_diPORT</title>
<path fill="none" stroke="#000000" d="M2344.9548,-71.8314C2350.5891,-63.2001 2357.4176,-52.7394 2363.5512,-43.3432"/>
<polygon fill="#000000" stroke="#000000" points="2368.0749,-36.4133 2366.7165,-45.0802 2365.8884,-39.7628 2363.7019,-43.1123 2363.7019,-43.1123 2363.7019,-43.1123 2365.8884,-39.7628 2360.6873,-41.1445 2368.0749,-36.4133 2368.0749,-36.4133"/>
</g>
<!-- M5_di_X -->
<g id="node39" class="node">
<title>M5_di_X</title>
<path fill="none" stroke="#000000" d="M2501.5379,-36C2501.5379,-36 2454.6515,-36 2454.6515,-36 2448.6515,-36 2442.6515,-30 2442.6515,-24 2442.6515,-24 2442.6515,-12 2442.6515,-12 2442.6515,-6 2448.6515,0 2454.6515,0 2454.6515,0 2501.5379,0 2501.5379,0 2507.5379,0 2513.5379,-6 2513.5379,-12 2513.5379,-12 2513.5379,-24 2513.5379,-24 2513.5379,-30 2507.5379,-36 2501.5379,-36"/>
<text text-anchor="middle" x="2478.0947" y="-13.8" font-family="Times,serif" font-size="14.00" fill="#000000">M5_di_X</text>
</g>
<!-- OnSW5Interruption&#45;&gt;M5_di_X -->
<g id="edge35" class="edge">
<title>OnSW5Interruption-&gt;M5_di_X</title>
<path fill="none" stroke="#000000" d="M2369.6843,-71.8314C2389.6471,-61.9188 2414.4695,-49.5932 2435.3231,-39.2383"/>
<polygon fill="#000000" stroke="#000000" points="2442.5193,-35.665 2436.9551,-42.4474 2438.9366,-37.444 2435.354,-39.223 2435.354,-39.223 2435.354,-39.223 2438.9366,-37.444 2433.7529,-35.9986 2442.5193,-35.665 2442.5193,-35.665"/>
</g>
<!-- M5_enPORT -->
<g id="node40" class="node">
<title>M5_enPORT</title>
<path fill="none" stroke="#000000" d="M2611.0334,-36C2611.0334,-36 2543.156,-36 2543.156,-36 2537.156,-36 2531.156,-30 2531.156,-24 2531.156,-24 2531.156,-12 2531.156,-12 2531.156,-6 2537.156,0 2543.156,0 2543.156,0 2611.0334,0 2611.0334,0 2617.0334,0 2623.0334,-6 2623.0334,-12 2623.0334,-12 2623.0334,-24 2623.0334,-24 2623.0334,-30 2617.0334,-36 2611.0334,-36"/>
<text text-anchor="middle" x="2577.0947" y="-13.8" font-family="Times,serif" font-size="14.00" fill="#000000">M5_enPORT</text>
</g>
<!-- OnSW5Interruption&#45;&gt;M5_enPORT -->
<g id="edge36" class="edge">
<title>OnSW5Interruption-&gt;M5_enPORT</title>
<path fill="none" stroke="#000000" d="M2398.4399,-71.9894C2434.9238,-61.7684 2481.1459,-48.5456 2522.0947,-36 2522.56,-35.8574 2523.0274,-35.7138 2523.4966,-35.5693"/>
<polygon fill="#000000" stroke="#000000" points="2531.22,-33.1578 2524.6566,-38.9786 2527.4018,-34.35 2523.5836,-35.5422 2523.5836,-35.5422 2523.5836,-35.5422 2527.4018,-34.35 2522.5106,-32.1058 2531.22,-33.1578 2531.22,-33.1578"/>
</g>
<!-- M5_en_X -->
<g id="node41" class="node">
<title>M5_en_X</title>
<path fill="none" stroke="#000000" d="M2701.3609,-36C2701.3609,-36 2652.8285,-36 2652.8285,-36 2646.8285,-36 2640.8285,-30 2640.8285,-24 2640.8285,-24 2640.8285,-12 2640.8285,-12 2640.8285,-6 2646.8285,0 2652.8285,0 2652.8285,0 2701.3609,0 2701.3609,0 2707.3609,0 2713.3609,-6 2713.3609,-12 2713.3609,-12 2713.3609,-24 2713.3609,-24 2713.3609,-30 2707.3609,-36 2701.3609,-36"/>
<text text-anchor="middle" x="2677.0947" y="-13.8" font-family="Times,serif" font-size="14.00" fill="#000000">M5_en_X</text>
</g>
<!-- OnSW5Interruption&#45;&gt;M5_en_X -->
<g id="edge37" class="edge">
<title>OnSW5Interruption-&gt;M5_en_X</title>
<path fill="none" stroke="#000000" d="M2401.9805,-81.5845C2463.1716,-73.1616 2554.6487,-58.2357 2632.0947,-36 2632.2666,-35.9507 2632.4387,-35.9009 2632.611,-35.8507"/>
<polygon fill="#000000" stroke="#000000" points="2640.4688,-33.3507 2633.9368,-39.2068 2636.657,-34.5635 2632.8453,-35.7762 2632.8453,-35.7762 2632.8453,-35.7762 2636.657,-34.5635 2631.7538,-32.3457 2640.4688,-33.3507 2640.4688,-33.3507"/>
</g>
</g>
</svg>